<svg width="456" height="510" viewBox="0 0 456 510" fill="none" xmlns="http://www.w3.org/2000/svg">
<circle cx="228" cy="255" r="228" fill="#514EF5"/>
<path d="M244.298 379.856C244.004 386.634 241.941 391.643 238.11 394.884C234.575 398.42 230.597 400.188 226.177 400.188C222.052 400.188 218.221 398.567 214.685 395.326C211.149 392.379 208.939 387.665 208.055 381.182C207.761 353.484 207.466 325.197 207.171 296.32C207.171 267.444 207.024 239.157 206.729 211.459C208.203 205.565 210.56 201.146 213.801 198.199C217.042 195.252 220.726 193.779 224.851 193.779C228.681 193.779 232.217 195.105 235.459 197.757C238.994 200.409 241.499 204.534 242.972 210.133C243.267 237.831 243.414 266.118 243.414 294.994C243.709 323.871 244.004 352.158 244.298 379.856ZM203.635 139.414C203.635 132.932 205.698 127.481 209.823 123.061C213.948 118.346 218.958 115.989 224.851 115.989C230.744 115.989 235.753 118.346 239.878 123.061C244.298 127.481 246.508 132.932 246.508 139.414C246.508 145.602 244.298 151.053 239.878 155.768C235.753 160.188 230.744 162.398 224.851 162.398C218.958 162.398 213.948 160.188 209.823 155.768C205.698 151.053 203.635 145.602 203.635 139.414Z" fill="white"/>
</svg>
